<?xml version="1.0" encoding="UTF-8"?>
<svg version="1.1" xmlns="http://www.w3.org/2000/svg" width="256" height="256">
<path d="M0 0 C0.91918213 0.00354492 1.83836426 0.00708984 2.78540039 0.01074219 C10.2383137 0.19208787 16.21255371 1.68284416 22.6875 5.5 C23.30625 5.85707031 23.925 6.21414062 24.5625 6.58203125 C25.98913264 7.47724323 27.34404532 8.48421719 28.6875 9.5 C29.491875 10.03625 30.29625 10.5725 31.125 11.125 C37.31855781 16.86537065 42.04752243 24.4838181 44.6875 32.5 C45.0896875 33.70462891 45.0896875 33.70462891 45.5 34.93359375 C46.14540737 37.80655296 46.33577711 39.61341477 45.6875 42.5 C42.78800802 46.36775299 39.47331996 49.50448589 35.6875 52.5 C35.3575 52.5 35.0275 52.5 34.6875 52.5 C34.52894531 51.38882813 34.37039062 50.27765625 34.20703125 49.1328125 C32.35175343 36.95292733 30.12444368 27.29954947 20.1171875 19.1953125 C11.28241706 13.03085853 2.14720466 12.43025748 -8.3125 13.5 C-11.68171026 14.3848909 -14.37574588 15.64777333 -17.3125 17.5 C-17.93382812 17.850625 -18.55515625 18.20125 -19.1953125 18.5625 C-26.11132365 22.87377968 -30.14078323 29.78147416 -32.3125 37.5 C-32.74335374 40.13299509 -33.12477815 42.72968077 -33.4375 45.375 C-33.52386719 46.06335938 -33.61023437 46.75171875 -33.69921875 47.4609375 C-33.90909566 49.13995275 -34.11157087 50.81989048 -34.3125 52.5 C-35.5809375 52.55607422 -35.5809375 52.55607422 -36.875 52.61328125 C-49.0543183 53.18657227 -49.0543183 53.18657227 -58.6875 59.875 C-62.48010678 64.82187841 -63.79078277 68.93294098 -63.625 75.16015625 C-62.91041172 80.51063599 -60.4274998 84.78400018 -56.4375 88.375 C-50.32647325 92.53049819 -44.69818611 92.82090756 -37.5390625 92.9140625 C-36.6153183 92.93342865 -35.6915741 92.9527948 -34.73983765 92.9727478 C-31.80581736 93.03225705 -28.87175724 93.07881395 -25.9375 93.125 C-23.94138968 93.16320617 -21.94529537 93.20225942 -19.94921875 93.2421875 C-15.07044349 93.33793496 -10.19159109 93.42207139 -5.3125 93.5 C-6.7521309 95.21667328 -8.20307125 96.92106065 -9.67312622 98.61183167 C-11.04429204 100.19108828 -12.39031086 101.79213217 -13.72998047 103.39819336 C-17.15520217 106.18584071 -19.25262306 106.13137535 -23.6328125 106.12890625 C-24.33211884 106.13131821 -25.03142517 106.13373016 -25.75192261 106.13621521 C-27.22952957 106.13523868 -28.70717398 106.12189073 -30.18457031 106.09692383 C-32.41081992 106.06290766 -34.63302531 106.0761954 -36.859375 106.09570312 C-48.68879518 106.08386833 -59.5954817 104.1216461 -68.3125 95.5 C-75.573113 86.6384946 -77.39097481 77.82398551 -76.3125 66.5 C-74.07949342 57.46647338 -69.26254313 50.08014849 -61.375 45.125 C-55.98920881 42.14459225 -51.54366611 40.5 -45.3125 40.5 C-45.27125 39.2625 -45.23 38.025 -45.1875 36.75 C-43.92527413 25.88462327 -37.24599893 16.67853693 -29.3125 9.5 C-20.31800219 2.81069581 -11.14171835 -0.07764976 0 0 Z " fill="#FFFFFF" transform="translate(90.3125,74.5)"/>
<path d="M0 0 C6 0 6 0 8 1.9375 C8.66 2.948125 9.32 3.95875 10 5 C10.52078125 5.77085937 11.0415625 6.54171875 11.578125 7.3359375 C13.06973759 9.54547577 14.53661609 11.77166541 16 14 C16.33 9.38 16.66 4.76 17 0 C18.98 0 20.96 0 23 0 C23 8.58 23 17.16 23 26 C16 26 16 26 13.6015625 23.6640625 C12.94929687 22.66117188 12.29703125 21.65828125 11.625 20.625 C10.95726562 19.62726563 10.28953125 18.62953125 9.6015625 17.6015625 C8 15 8 15 7 13 C6.67 17.29 6.34 21.58 6 26 C4.02 26 2.04 26 0 26 C0 17.42 0 8.84 0 0 Z " fill="#FFFFFF" transform="translate(198,133)"/>
<path d="M0 0 C14.72603431 -0.27270434 14.72603431 -0.27270434 18 2 C19.76279117 5.52558233 19.22713881 9.55395591 19.25 13.4375 C19.270625 14.30955078 19.29125 15.18160156 19.3125 16.08007812 C19.31765625 16.91861328 19.3228125 17.75714844 19.328125 18.62109375 C19.34214355 19.77242798 19.34214355 19.77242798 19.35644531 20.94702148 C18.89987358 23.57668705 18.14614994 24.44388104 16 26 C13.17074044 26.21853189 10.62668821 26.28262512 7.8125 26.1875 C5.234375 26.125625 2.65625 26.06375 0 26 C0 17.42 0 8.84 0 0 Z M6 7 C6 7.99 6 8.98 6 10 C7.98 10 9.96 10 12 10 C12.33 9.01 12.66 8.02 13 7 C10.69 7 8.38 7 6 7 Z M6 16 C6 17.32 6 18.64 6 20 C7.98 20 9.96 20 12 20 C12 18.68 12 17.36 12 16 C10.02 16 8.04 16 6 16 Z " fill="#FFFFFF" transform="translate(152,133)"/>
<path d="M0 0 C4.86953166 2.43476583 7.18709505 4.86343599 9 10 C9.76630957 16.02100375 8.39442403 19.19123263 5 24 C0.62545953 26.81686828 -3.9734289 26.51408113 -9 26 C-12.60597575 24.61898801 -13.6911324 23.4686267 -15.8125 20.25 C-17.62966135 15.27671632 -17.6530711 11.69798487 -15.75 6.75 C-11.85817176 0.63426991 -7.0596636 -0.59827658 0 0 Z M-7.625 7.5625 C-10.33958312 9.8677283 -10.33958312 9.8677283 -10.5 13.5625 C-10.23696124 16.86885098 -10.23696124 16.86885098 -8.875 18.9375 C-6.11019567 20.50422245 -4.11811483 20.38976435 -1 20 C1.01951062 19.06402685 1.01951062 19.06402685 2 17 C2.66676878 13.54250051 2.66676878 13.54250051 2 10 C-0.24291412 7.4879561 -0.24291412 7.4879561 -3 6 C-5.2227086 5.82950538 -5.2227086 5.82950538 -7.625 7.5625 Z " fill="#FFFFFF" transform="translate(96,133)"/>
<path d="M0 0 C4.94225693 0.06363421 8.11278869 0.72746677 12.375 3.25 C15.47444967 6.44943191 15.60593903 9.46274561 15.75 13.75 C15.62351719 18.02166934 15.34032952 20.9669566 12.375 24.25 C8.73929024 26.69381434 5.41248285 26.45439783 1.125 26.375 C-0.13828125 26.35695312 -1.4015625 26.33890625 -2.703125 26.3203125 C-3.66734375 26.29710937 -4.6315625 26.27390625 -5.625 26.25 C-5.65386751 22.10418113 -5.67175327 17.95838784 -5.6875 13.8125 C-5.69587891 12.62849609 -5.70425781 11.44449219 -5.71289062 10.22460938 C-5.71611328 9.09990234 -5.71933594 7.97519531 -5.72265625 6.81640625 C-5.72789307 5.77427979 -5.73312988 4.73215332 -5.73852539 3.65844727 C-5.54183412 -0.51436856 -3.73404304 0.06768658 0 0 Z M1.375 7.25 C1.375 11.54 1.375 15.83 1.375 20.25 C3.355 19.92 5.335 19.59 7.375 19.25 C9.68782587 15.78076119 9.79978586 14.32794425 9.375 10.25 C8.31154948 8.26970318 8.31154948 8.26970318 6.375 7.25 C4.725 7.25 3.075 7.25 1.375 7.25 Z " fill="#FFFFFF" transform="translate(133.625,132.75)"/>
<path d="M0 0 C1.98 0 3.96 0 6 0 C6.33 2.97 6.66 5.94 7 9 C7.49628906 8.3503125 7.99257812 7.700625 8.50390625 7.03125 C13.98650249 0.28984135 13.98650249 0.28984135 17.08984375 -0.59765625 C19 -0.5625 19 -0.5625 22 0 C20.63629701 2.99220268 19.05091917 5.29026529 16.875 7.75 C16.33617187 8.36359375 15.79734375 8.9771875 15.2421875 9.609375 C14.62730469 10.29773438 14.62730469 10.29773438 14 11 C15.54063461 14.33804166 17.48340337 17.20424708 19.625 20.1875 C23 24.89183673 23 24.89183673 23 26 C17.97927461 26.79274611 17.97927461 26.79274611 15 26 C12.18889737 23.30449411 10.08245528 20.27986706 8 17 C6.50256881 18.49743119 6.66797307 19.98824239 6.4375 22.0625 C6.293125 23.361875 6.14875 24.66125 6 26 C4.02 26 2.04 26 0 26 C0 17.42 0 8.84 0 0 Z " fill="#FFFFFF" transform="translate(224,133)"/>
<path d="M0 0 C1.4540625 0.0309375 1.4540625 0.0309375 2.9375 0.0625 C4.44577797 3.83007497 5.94268994 7.60206349 7.4375 11.375 C7.86675781 12.44685547 8.29601562 13.51871094 8.73828125 14.62304688 C9.34736328 16.16508789 9.34736328 16.16508789 9.96875 17.73828125 C10.34580078 18.68614502 10.72285156 19.63400879 11.11132812 20.6105957 C11.9375 23.0625 11.9375 23.0625 11.9375 26.0625 C9.9575 26.0625 7.9775 26.0625 5.9375 26.0625 C5.2775 24.4125 4.6175 22.7625 3.9375 21.0625 C0.9675 21.0625 -2.0025 21.0625 -5.0625 21.0625 C-5.3925 22.7125 -5.7225 24.3625 -6.0625 26.0625 C-8.3725 26.0625 -10.6825 26.0625 -13.0625 26.0625 C-12.45288113 22.59721696 -11.56085807 19.49715819 -10.25 16.234375 C-9.89679688 15.35265625 -9.54359375 14.4709375 -9.1796875 13.5625 C-8.81101563 12.655 -8.44234375 11.7475 -8.0625 10.8125 C-7.69382813 9.88953125 -7.32515625 8.9665625 -6.9453125 8.015625 C-3.74629399 0.07645498 -3.74629399 0.07645498 0 0 Z M-1.0625 10.0625 C-1.3925 11.7125 -1.7225 13.3625 -2.0625 15.0625 C-1.0725 15.0625 -0.0825 15.0625 0.9375 15.0625 C0.6075 13.4125 0.2775 11.7625 -0.0625 10.0625 C-0.3925 10.0625 -0.7225 10.0625 -1.0625 10.0625 Z " fill="#FFFFFF" transform="translate(184.0625,132.9375)"/>
<path d="M0 0 C1.98 0 3.96 0 6 0 C6.06058594 1.12019531 6.12117188 2.24039063 6.18359375 3.39453125 C6.26801424 4.86719984 6.35266149 6.33985544 6.4375 7.8125 C6.47681641 8.55048828 6.51613281 9.28847656 6.55664062 10.04882812 C6.74381035 13.23071342 6.98720793 15.96162378 8 19 C8.99 19 9.98 19 11 19 C12.23759823 15.28720531 12.35608897 11.68693654 12.5625 7.8125 C12.60568359 7.06291016 12.64886719 6.31332031 12.69335938 5.54101562 C12.79922685 3.69421625 12.9000976 1.84713166 13 0 C14.98 0 16.96 0 19 0 C19.0875127 3.22899426 19.14056146 6.45768116 19.1875 9.6875 C19.21263672 10.59951172 19.23777344 11.51152344 19.26367188 12.45117188 C19.31844487 17.47202952 19.2970139 20.92233294 16 25 C14.26780072 26.73219928 11.97973192 26.21291761 9.625 26.25 C8.64789063 26.27578125 7.67078125 26.3015625 6.6640625 26.328125 C4 26 4 26 2.2109375 24.671875 C0.01572958 21.64107181 -0.12064881 18.9418633 -0.09765625 15.33203125 C-0.09443359 14.43935547 -0.09121094 13.54667969 -0.08789062 12.62695312 C-0.07951172 11.69818359 -0.07113281 10.76941406 -0.0625 9.8125 C-0.05798828 8.87212891 -0.05347656 7.93175781 -0.04882812 6.96289062 C-0.03704626 4.64186288 -0.02059558 2.32096356 0 0 Z " fill="#FFFFFF" transform="translate(107,133)"/>
<path d="M0 0 C3.375 1.25 3.375 1.25 6 3 C6.875 5.1875 6.875 5.1875 7 7 C4 9 4 9 2.0625 8.6875 C0.69977066 8.23325689 -0.65501665 7.75436876 -2 7.25 C-4.11640535 6.78827723 -4.11640535 6.78827723 -6.1875 8.1875 C-8.24265528 10.24265528 -8.91463444 11.097571 -9 14 C-8.07976712 16.83928533 -8.07976712 16.83928533 -6 19 C-2.73904867 19.4856736 -0.80293137 19.42508131 2.125 17.875 C2.74375 17.58625 3.3625 17.2975 4 17 C6.25 17.875 6.25 17.875 8 19 C6.52912834 23.65776026 6.52912834 23.65776026 4.23046875 25.14453125 C-0.64793502 27.01558278 -6.110979 26.72345485 -10.9375 24.875 C-14.59758184 21.54765288 -15.85214398 18.37998948 -16.375 13.5 C-15.79869069 8.12111311 -14.35412888 5.16947494 -10.25 1.625 C-6.40893024 -0.29553488 -4.24620247 -0.53077531 0 0 Z " fill="#FFFFFF" transform="translate(51,133)"/>
<path d="M0 0 C1.98 0 3.96 0 6 0 C7 1 7 1 7.11352539 2.85766602 C7.10828857 3.64842529 7.10305176 4.43918457 7.09765625 5.25390625 C7.09443359 6.10791016 7.09121094 6.96191406 7.08789062 7.84179688 C7.07951172 8.73962891 7.07113281 9.63746094 7.0625 10.5625 C7.05798828 11.46419922 7.05347656 12.36589844 7.04882812 13.29492188 C7.03700244 15.52997589 7.01906638 17.76499602 7 20 C11.29 20 15.58 20 20 20 C20 21.98 20 23.96 20 26 C13.4 26 6.8 26 0 26 C0 17.42 0 8.84 0 0 Z " fill="#FFFFFF" transform="translate(60,133)"/>
<path d="M0 0 C3 0.25 3 0.25 5 2.25 C5.125 4.875 5.125 4.875 5 7.25 C5.99 7.25 6.98 7.25 8 7.25 C8 7.91 8 8.57 8 9.25 C9.32 9.25 10.64 9.25 12 9.25 C12 8.59 12 7.93 12 7.25 C9.03 6.755 9.03 6.755 6 6.25 C5.957279 4.58388095 5.95936168 2.91617115 6 1.25 C7 0.25 7 0.25 8.85766602 0.13647461 C9.64842529 0.14171143 10.43918457 0.14694824 11.25390625 0.15234375 C12.53491211 0.15717773 12.53491211 0.15717773 13.84179688 0.16210938 C14.73962891 0.17048828 15.63746094 0.17886719 16.5625 0.1875 C17.46419922 0.19201172 18.36589844 0.19652344 19.29492188 0.20117188 C21.52997589 0.21299756 23.76499602 0.23093362 26 0.25 C26 3.88 26 7.51 26 11.25 C25.34 11.25 24.68 11.25 24 11.25 C24 8.28 24 5.31 24 2.25 C22.68 2.25 21.36 2.25 20 2.25 C20 5.22 20 8.19 20 11.25 C19.34 11.25 18.68 11.25 18 11.25 C18 8.28 18 5.31 18 2.25 C16.68 2.25 15.36 2.25 14 2.25 C14.020625 3.549375 14.04125 4.84875 14.0625 6.1875 C14.08399454 7.54165633 14.07148199 8.89756083 14 10.25 C13 11.25 13 11.25 9.4375 11.3125 C8.303125 11.291875 7.16875 11.27125 6 11.25 C6 10.59 6 9.93 6 9.25 C5.01 9.91 4.02 10.57 3 11.25 C0.66800612 11.32905064 -1.66832622 11.33798769 -4 11.25 C-5.50662097 8.23675805 -5.17770373 5.56713623 -5 2.25 C-3 0.25 -3 0.25 0 0 Z M-1 2.25 C-1.66 2.91 -2.32 3.57 -3 4.25 C-2.67958603 6.85280568 -2.67958603 6.85280568 -2 9.25 C-0.68 9.25 0.64 9.25 2 9.25 C2.33 7.6 2.66 5.95 3 4.25 C1.68 3.59 0.36 2.93 -1 2.25 Z M9 2.25 C9 2.91 9 3.57 9 4.25 C9.99 3.92 10.98 3.59 12 3.25 C11.01 2.92 10.02 2.59 9 2.25 Z " fill="#FFFFFF" transform="translate(186,164.75)"/>
<path d="M0 0 C0.99 0 1.98 0 3 0 C3.66 1.65 4.32 3.3 5 5 C5.66 3.35 6.32 1.7 7 0 C8.32 0 9.64 0 11 0 C11.33 1.65 11.66 3.3 12 5 C12.66 3.35 13.32 1.7 14 0 C14.99 0 15.98 0 17 0 C17.99 1.98 18.98 3.96 20 6 C20.33 4.02 20.66 2.04 21 0 C21.99 0 22.98 0 24 0 C24 3.63 24 7.26 24 11 C22.02 11 20.04 11 18 11 C17.67 10.34 17.34 9.68 17 9 C16.01 8.67 15.02 8.34 14 8 C13.67 8.99 13.34 9.98 13 11 C8.66666667 11 4.33333333 11 0 11 C0 7.37 0 3.74 0 0 Z " fill="#FFFFFF" transform="translate(119,165)"/>
<path d="M0 0 C0.33 1.32 0.66 2.64 1 4 C-1.31 3.67 -3.62 3.34 -6 3 C-5.67 4.65 -5.34 6.3 -5 8 C-3.68 8.33 -2.36 8.66 -1 9 C-1 8.34 -1 7.68 -1 7 C-1.99 7 -2.98 7 -4 7 C-4 6.34 -4 5.68 -4 5 C-2.02 5 -0.04 5 2 5 C2.042721 6.66611905 2.04063832 8.33382885 2 10 C0.10871658 11.89128342 -2.57067726 11.2366852 -5.08984375 11.328125 C-5.72019531 11.21984375 -6.35054687 11.1115625 -7 11 C-9 8 -9 8 -8.75 4.375 C-8.5025 3.26125 -8.255 2.1475 -8 1 C-5.29120665 -0.35439668 -2.99066732 -0.06501451 0 0 Z " fill="#FFFFFF" transform="translate(232,165)"/>
<path d="M0 0 C4 1 4 1 6 4 C6.33 2.68 6.66 1.36 7 0 C7.66 0 8.32 0 9 0 C9 3.63 9 7.26 9 11 C5 9 5 9 4 8 C3.67 8.99 3.34 9.98 3 11 C2.01 11 1.02 11 0 11 C0 7.37 0 3.74 0 0 Z " fill="#FFFFFF" transform="translate(213,165)"/>
<path d="M0 0 C4 2 4 2 5 4 C5.33 2.68 5.66 1.36 6 0 C6.99 0 7.98 0 9 0 C9 3.63 9 7.26 9 11 C5 10 5 10 3 7 C2.67 8.32 2.34 9.64 2 11 C1.34 11 0.68 11 0 11 C0 7.37 0 3.74 0 0 Z " fill="#FFFFFF" transform="translate(144,165)"/>
<path d="M0 0 C1.890625 0.25390625 1.890625 0.25390625 4 1 C5.046875 2.77734375 5.046875 2.77734375 5.75 4.9375 C5.99234375 5.64777344 6.2346875 6.35804688 6.484375 7.08984375 C7 9 7 9 7 11 C4.03 11 1.06 11 -2 11 C-3.28485596 5.86057616 -2.22194431 4.62164416 0 0 Z M0 7 C0 7.66 0 8.32 0 9 C0.66 8.67 1.32 8.34 2 8 C1.34 7.67 0.68 7.34 0 7 Z " fill="#FFFFFF" transform="translate(160,165)"/>
<path d="M0 0 C3.375 -0.125 3.375 -0.125 7 0 C9 2 9 2 9.23046875 3.91015625 C9.11111111 9.88888889 9.11111111 9.88888889 8 11 C5.32941149 11.14115161 2.67567762 11.04247107 0 11 C0 7.37 0 3.74 0 0 Z M3 2 C3 4.31 3 6.62 3 9 C3.99 9 4.98 9 6 9 C6.33 7.35 6.66 5.7 7 4 C5.68 3.34 4.36 2.68 3 2 Z " fill="#FFFFFF" transform="translate(98,165)"/>
<path d="M0 0 C0.99 0.33 1.98 0.66 3 1 C3 1.99 3 2.98 3 4 C3.99 4 4.98 4 6 4 C6 2.68 6 1.36 6 0 C6.99 0 7.98 0 9 0 C9 3.63 9 7.26 9 11 C8.01 11 7.02 11 6 11 C6 9.35 6 7.7 6 6 C5.01 6 4.02 6 3 6 C3 7.65 3 9.3 3 11 C2.01 11 1.02 11 0 11 C0 7.37 0 3.74 0 0 Z " fill="#FFFFFF" transform="translate(171,165)"/>
<path d="M0 0 C3 0.25 3 0.25 5 2.25 C5.32752234 4.96454956 5.1308425 7.50230759 5 10.25 C4 11.25 4 11.25 0.5625 11.4375 C-3 11.25 -3 11.25 -5 9.25 C-5.25 5.75 -5.25 5.75 -5 2.25 C-3 0.25 -3 0.25 0 0 Z M-1 2.25 C-1.66 3.57 -2.32 4.89 -3 6.25 C-2.01 7.735 -2.01 7.735 -1 9.25 C0.32 8.92 1.64 8.59 3 8.25 C2.67 6.6 2.34 4.95 2 3.25 C1.01 2.92 0.02 2.59 -1 2.25 Z " fill="#FFFFFF" transform="translate(113,164.75)"/>
</svg>
